<svg width="143" height="141" viewBox="0 0 143 141" fill="none" xmlns="http://www.w3.org/2000/svg">
    <g clip-path="url(#clip0)">
        <path d="M128.302 13.4971C121.689 1.44728 106.506 -2.98889 94.39 3.58858C93.818 3.89915 93.2629 4.22895 92.7255 4.57627L89.4371 6.54718C77.642 12.9505 73.5456 27.5177 79.9839 39.2487L84.6965 47.8349L89.9424 44.9869L91.6467 48.0925L93.0211 47.3463L94.4291 49.9535C96.6954 54.1502 101.326 54.6075 105.556 52.3737L109.595 50.2414L116.544 62.8628L133.475 53.671L126.228 40.5016C132.032 32.9381 133.181 22.3879 128.302 13.4971Z" fill="#FFC1A3"/>
        <path d="M89.292 33.4092C90.5767 33.4092 91.6181 32.3734 91.6181 31.0958C91.6181 29.8181 90.5767 28.7823 89.292 28.7823C88.0074 28.7823 86.9659 29.8181 86.9659 31.0958C86.9659 32.3734 88.0074 33.4092 89.292 33.4092Z" fill="#0F0F0E"/>
        <path d="M142.598 49.1891H138.73C121.566 49.1891 107.652 63.0277 107.652 80.0987V141H142.598V49.1891Z" fill="#EE442B"/>
        <path d="M117.628 115.176L142.602 124.646L142.598 83.7822H117.628V115.176Z" fill="#FFC49C"/>
        <path d="M142.598 82.2496H115.976V95.3874H142.598V82.2496Z" fill="#108E82"/>
        <path d="M142.602 124.646L131.415 102.695L76.5957 102.121L85.4019 118.543L142.602 124.646Z" fill="#FFC49C"/>
        <path d="M99.951 37.755L100.023 38.6582C100.161 40.3876 99.1524 42.0053 97.533 42.6508L95.3931 43.5038L89.9421 44.9873L89.0695 49.4626L99.018 43.9755C101.31 42.7113 101.772 39.629 99.951 37.755Z" fill="#050C04"/>
        <path d="M73.9398 20.6119C73.9398 20.6119 86.7929 24.8687 102.429 10.4914C102.429 10.4914 101.585 37.9903 122.611 31.6276L126.406 40.886L134.806 36.139L130.742 19.6345C129.869 13.6826 121.171 -8.12757 93.4474 3.22378C87.4512 5.67908 82.0824 9.43229 78.2786 14.6552L73.9398 20.6119Z" fill="#050C04"/>
        <path d="M110.225 21.5133L108.069 30.7165C107.019 35.2014 104.377 39.1587 100.628 41.8617L93.0211 47.3467C93.0211 47.3467 93.4197 54.3041 97.981 58.844C97.981 58.844 125.678 49.3269 120.492 27.5394L110.225 21.5133Z" fill="#050C04"/>
        <path d="M51.2774 108.471L44.0878 115.685C42.741 117.04 42.7535 119.223 44.1148 120.562C45.4764 121.902 47.6719 121.889 49.0183 120.535L56.657 112.877L51.2774 108.471Z" fill="#FFC49C"/>
        <path d="M61.7074 107.622L54.5178 114.837C53.171 116.191 53.1834 118.375 54.5447 119.714C55.9064 121.053 58.1019 121.041 59.4483 119.687L67.087 112.029L61.7074 107.622Z" fill="#FFC49C"/>
        <path d="M69.2203 107.649L62.0307 114.865C60.6839 116.219 60.6963 118.402 62.0576 119.742C63.4193 121.081 65.6148 121.069 66.9612 119.715L74.5999 112.056L69.2203 107.649Z" fill="#FFC49C"/>
        <path d="M76.4855 109.127L69.2959 116.343C67.9491 117.697 67.9616 119.88 69.3229 121.219C70.6845 122.559 72.88 122.547 74.2265 121.193L81.8651 113.534L76.4855 109.127Z" fill="#FFC49C"/>
        <path d="M81.7141 102.326C81.7141 102.326 62.8079 95.1823 49.8049 109.88L55.419 114.355L75.4396 119.692L77.8216 119.615C79.6064 119.557 81.3829 119.351 83.1331 118.999L85.4019 118.543L81.7141 102.326Z" fill="#FFC49C"/>
        <path d="M89.8326 119.028L85.044 118.615V102.187H89.8326V119.028Z" fill="#050C04"/>
        <path d="M87.452 117.182C89.27 117.182 90.7438 114.119 90.7438 110.339C90.7438 106.56 89.27 103.497 87.452 103.497C85.6339 103.497 84.1601 106.56 84.1601 110.339C84.1601 114.119 85.6339 117.182 87.452 117.182Z" fill="#050C04"/>
        <path d="M77.6755 37.9144C77.2692 37.9144 76.8724 37.7107 76.644 37.3411C76.2945 36.7753 76.4724 36.0346 77.0413 35.6873L81.5082 32.9582C82.0772 32.6108 82.8215 32.7874 83.1711 33.3532C83.5207 33.919 83.3428 34.6597 82.7739 35.007L78.3069 37.7361C78.1097 37.8567 77.891 37.9144 77.6755 37.9144Z" fill="black"/>
        <path d="M95.1735 25.1625C94.8657 25.1625 94.5576 25.0463 94.322 24.8134C93.8481 24.3459 93.845 23.5846 94.3155 23.1132C94.7994 22.6281 95.2972 22.106 95.8243 21.5532C98.7683 18.4658 102.105 14.9661 106.198 14.4315L110.971 13.808C111.633 13.7232 112.24 14.1852 112.327 14.8435C112.414 15.502 111.947 16.106 111.286 16.1922L106.513 16.8157C103.269 17.2397 100.246 20.4109 97.5787 23.208C97.0419 23.7711 96.5351 24.3029 96.0319 24.8069C95.7952 25.0436 95.4844 25.1625 95.1735 25.1625Z" fill="black"/>
        <path d="M85.9577 42.1588L77.3301 28.3542L92.332 19.08L100.96 32.8849L85.9577 42.1588ZM82.5553 29.567L87.1773 36.9621L95.7348 31.6718L91.1127 24.2767L82.5553 29.567Z" fill="#333C6D"/>
        <path d="M107.397 16.2932C107.32 16.3334 107.246 16.3756 107.172 16.4186L112.586 26.6043C112.664 26.5679 112.741 26.5304 112.817 26.4902C115.648 25.0016 116.73 21.5119 115.233 18.6959C113.737 15.8799 110.228 14.8046 107.397 16.2932Z" fill="#FFC1A3"/>
        <path d="M117.574 74.7017H115.156V102.524H117.574V74.7017Z" fill="#050C04"/>
    </g>
    <path d="M33.7555 92.1461L22.5441 93.4268L22.6844 94.6483L33.8958 93.3676L33.7555 92.1461Z" fill="#FFC49C"/>
    <path d="M27.0268 84.7106L21.173 87.5277L21.7088 88.635L27.5626 85.8178L27.0268 84.7106Z" fill="#EE442B"/>
    <path d="M27.7301 101.275L21.7034 98.8478L21.2417 99.9878L27.2684 102.415L27.7301 101.275Z" fill="#EE442B"/>
    <path d="M24.0927 73.4493L16.7802 82.0204L17.7191 82.8171L25.0316 74.246L24.0927 73.4493Z" fill="#FFC49C"/>
    <path d="M24.8892 135.836H17.066V133.556C17.066 132.689 17.7712 131.985 18.6409 131.985H23.3143C24.184 131.985 24.8892 132.689 24.8892 133.556V135.836Z" fill="#FFEEA6"/>
    <path d="M33.8043 135.836H25.9814V133.556C25.9814 132.689 26.6866 131.985 27.5564 131.985H32.2297C33.0995 131.985 33.8047 132.689 33.8047 133.556V135.836H33.8043Z" fill="#FFEEA6"/>
    <path d="M43.0242 135.836H35.2014V133.556C35.2014 132.689 35.9066 131.985 36.7763 131.985H41.4496C42.3194 131.985 43.0246 132.689 43.0246 133.556V135.836H43.0242Z" fill="#FFEEA6"/>
    <path d="M52.473 135.836H44.6501V133.556C44.6501 132.689 45.3553 131.985 46.2251 131.985H50.8984C51.7681 131.985 52.4733 132.689 52.4733 133.556V135.836H52.473Z" fill="#FFEEA6"/>
    <path d="M61.8453 135.836H54.0225V133.556C54.0225 132.689 54.7277 131.985 55.5974 131.985H60.2708C61.1405 131.985 61.8457 132.689 61.8457 133.556V135.836H61.8453Z" fill="#FFEEA6"/>
    <path d="M71.8275 135.836H64.0046V133.556C64.0046 132.689 64.7098 131.985 65.5795 131.985H70.2529C71.1226 131.985 71.8278 132.689 71.8278 133.556V135.836H71.8275Z" fill="#FFEEA6"/>
    <path d="M17.1043 139.836L10.5547 140.859L0.0404755 73.852C-0.242625 72.0483 0.994027 70.3572 2.80262 70.0752C4.61121 69.7929 6.30694 71.0262 6.58973 72.8302L17.1043 139.836Z" fill="#108E82"/>
    <path d="M82 140.965V134.354H10.6784V140.965H82Z" fill="#108E82"/>
    <defs>
        <clipPath id="clip0">
            <rect width="99.6879" height="141" fill="white" transform="translate(43)"/>
        </clipPath>
    </defs>
</svg>
