<svg width="104" height="16" viewBox="0 0 104 16" fill="none" xmlns="http://www.w3.org/2000/svg">
<path d="M10.4922 6.08594V6.54688C10.4922 7.41667 10.3698 8.19792 10.125 8.89062C9.88542 9.57812 9.54427 10.1667 9.10156 10.6562C8.65885 11.1406 8.13542 11.513 7.53125 11.7734C6.92708 12.0286 6.26042 12.1562 5.53125 12.1562C4.79688 12.1562 4.125 12.0286 3.51562 11.7734C2.91146 11.513 2.38542 11.1406 1.9375 10.6562C1.49479 10.1667 1.15104 9.57812 0.90625 8.89062C0.666667 8.19792 0.546875 7.41667 0.546875 6.54688V6.08594C0.546875 5.21615 0.666667 4.4349 0.90625 3.74219C1.15104 3.04948 1.49219 2.46094 1.92969 1.97656C2.3724 1.48698 2.89583 1.11458 3.5 0.859375C4.10938 0.598958 4.78125 0.46875 5.51562 0.46875C6.24479 0.46875 6.91146 0.598958 7.51562 0.859375C8.125 1.11458 8.65104 1.48698 9.09375 1.97656C9.53646 2.46094 9.88021 3.04948 10.125 3.74219C10.3698 4.4349 10.4922 5.21615 10.4922 6.08594ZM7.71094 6.54688V6.07031C7.71094 5.50781 7.66146 5.01302 7.5625 4.58594C7.46875 4.15365 7.32812 3.79167 7.14062 3.5C6.95312 3.20833 6.72135 2.98958 6.44531 2.84375C6.17448 2.69271 5.86458 2.61719 5.51562 2.61719C5.15104 2.61719 4.83333 2.69271 4.5625 2.84375C4.29167 2.98958 4.0651 3.20833 3.88281 3.5C3.70052 3.79167 3.5625 4.15365 3.46875 4.58594C3.38021 5.01302 3.33594 5.50781 3.33594 6.07031V6.54688C3.33594 7.10417 3.38021 7.59896 3.46875 8.03125C3.5625 8.45833 3.70052 8.82031 3.88281 9.11719C4.07031 9.41406 4.29948 9.63802 4.57031 9.78906C4.84635 9.9401 5.16667 10.0156 5.53125 10.0156C5.88021 10.0156 6.1901 9.9401 6.46094 9.78906C6.73177 9.63802 6.95833 9.41406 7.14062 9.11719C7.32812 8.82031 7.46875 8.45833 7.5625 8.03125C7.66146 7.59896 7.71094 7.10417 7.71094 6.54688ZM17.5266 9.94531V3.54688H20.1672V12H17.6984L17.5266 9.94531ZM17.7766 8.22656L18.4641 8.21094C18.4641 8.77865 18.3964 9.30469 18.2609 9.78906C18.1255 10.2682 17.925 10.6849 17.6594 11.0391C17.399 11.3932 17.076 11.6693 16.6906 11.8672C16.3104 12.0599 15.8703 12.1562 15.3703 12.1562C14.9536 12.1562 14.5708 12.099 14.2219 11.9844C13.8781 11.8646 13.5813 11.6797 13.3313 11.4297C13.0813 11.1745 12.8859 10.849 12.7453 10.4531C12.6099 10.0521 12.5422 9.57292 12.5422 9.01562V3.54688H15.175V9.03125C15.175 9.21875 15.1984 9.38021 15.2453 9.51562C15.2922 9.65104 15.3599 9.76562 15.4484 9.85938C15.537 9.94792 15.6464 10.0156 15.7766 10.0625C15.912 10.1042 16.0656 10.125 16.2375 10.125C16.6333 10.125 16.9432 10.0417 17.1672 9.875C17.3911 9.70833 17.5474 9.48177 17.6359 9.19531C17.7297 8.90885 17.7766 8.58594 17.7766 8.22656ZM26.8734 3.54688V5.375H21.7797V3.54688H26.8734ZM22.85 1.44531H25.4828V9.24219C25.4828 9.46615 25.5089 9.64062 25.5609 9.76562C25.613 9.88542 25.7016 9.97135 25.8266 10.0234C25.9568 10.0703 26.1286 10.0938 26.3422 10.0938C26.4932 10.0938 26.6182 10.0911 26.7172 10.0859C26.8161 10.0755 26.9099 10.0625 26.9984 10.0469V11.9297C26.7745 12.0026 26.5401 12.0573 26.2953 12.0938C26.0505 12.1354 25.7901 12.1562 25.5141 12.1562C24.9516 12.1562 24.4698 12.0677 24.0688 11.8906C23.6729 11.7135 23.3708 11.4349 23.1625 11.0547C22.9542 10.6745 22.85 10.1797 22.85 9.57031V1.44531ZM36.5438 0.625V12H33.8094V0.625H36.5438ZM41.8047 5.33594V12H39.1719V3.54688H41.6406L41.8047 5.33594ZM41.4844 7.48438L40.8828 7.5C40.8828 6.90625 40.9531 6.35938 41.0938 5.85938C41.2344 5.35938 41.4427 4.92448 41.7188 4.55469C41.9948 4.1849 42.3333 3.89844 42.7344 3.69531C43.1406 3.49219 43.6094 3.39062 44.1406 3.39062C44.5104 3.39062 44.8464 3.44792 45.1484 3.5625C45.4505 3.67188 45.7109 3.84635 45.9297 4.08594C46.1484 4.32031 46.3151 4.6276 46.4297 5.00781C46.5495 5.38281 46.6094 5.83333 46.6094 6.35938V12H43.9766V6.69531C43.9766 6.33594 43.9349 6.0651 43.8516 5.88281C43.7734 5.70052 43.6589 5.57812 43.5078 5.51562C43.3568 5.45312 43.1719 5.42188 42.9531 5.42188C42.724 5.42188 42.5182 5.47396 42.3359 5.57812C42.1536 5.68229 41.9974 5.82812 41.8672 6.01562C41.7422 6.19792 41.6458 6.41406 41.5781 6.66406C41.5156 6.91406 41.4844 7.1875 41.4844 7.48438ZM46.3125 7.48438L45.5781 7.5C45.5781 6.90625 45.6432 6.35938 45.7734 5.85938C45.9089 5.35938 46.1094 4.92448 46.375 4.55469C46.6458 4.1849 46.9818 3.89844 47.3828 3.69531C47.7839 3.49219 48.25 3.39062 48.7812 3.39062C49.1667 3.39062 49.5208 3.44792 49.8438 3.5625C50.1667 3.67708 50.4453 3.86198 50.6797 4.11719C50.9141 4.3724 51.0964 4.71094 51.2266 5.13281C51.3568 5.54948 51.4219 6.0651 51.4219 6.67969V12H48.7812V6.67969C48.7812 6.33073 48.7396 6.06771 48.6562 5.89062C48.5781 5.70833 48.4635 5.58594 48.3125 5.52344C48.1615 5.45573 47.9818 5.42188 47.7734 5.42188C47.5234 5.42188 47.3073 5.47396 47.125 5.57812C46.9427 5.68229 46.7891 5.82812 46.6641 6.01562C46.5443 6.19792 46.4557 6.41406 46.3984 6.66406C46.3411 6.91406 46.3125 7.1875 46.3125 7.48438ZM56.3859 5.17188V15.25H53.7531V3.54688H56.2062L56.3859 5.17188ZM61.5734 7.67188V7.83594C61.5734 8.45052 61.5031 9.02083 61.3625 9.54688C61.2219 10.0729 61.0135 10.5312 60.7375 10.9219C60.4615 11.3125 60.1177 11.6172 59.7062 11.8359C59.3 12.0495 58.8286 12.1562 58.2922 12.1562C57.787 12.1562 57.3521 12.0443 56.9875 11.8203C56.6229 11.5964 56.3182 11.2865 56.0734 10.8906C55.8286 10.4948 55.6307 10.0417 55.4797 9.53125C55.3286 9.02083 55.2089 8.48177 55.1203 7.91406V7.70312C55.2089 7.09375 55.3286 6.52865 55.4797 6.00781C55.6307 5.48177 55.8286 5.02344 56.0734 4.63281C56.3182 4.24219 56.6203 3.9375 56.9797 3.71875C57.3443 3.5 57.7792 3.39062 58.2844 3.39062C58.8208 3.39062 59.2922 3.49219 59.6984 3.69531C60.1099 3.89844 60.4536 4.1901 60.7297 4.57031C61.0109 4.94531 61.2219 5.39583 61.3625 5.92188C61.5031 6.44792 61.5734 7.03125 61.5734 7.67188ZM58.9406 7.83594V7.67188C58.9406 7.34375 58.9172 7.04427 58.8703 6.77344C58.8234 6.4974 58.7479 6.25781 58.6437 6.05469C58.5448 5.85156 58.412 5.69531 58.2453 5.58594C58.0786 5.47656 57.8729 5.42188 57.6281 5.42188C57.3469 5.42188 57.1099 5.46615 56.9172 5.55469C56.7297 5.63802 56.5786 5.76823 56.4641 5.94531C56.3547 6.11719 56.2766 6.33333 56.2297 6.59375C56.188 6.84896 56.1698 7.14844 56.175 7.49219V8.13281C56.1646 8.52865 56.2036 8.8776 56.2922 9.17969C56.3807 9.47656 56.5344 9.70833 56.7531 9.875C56.9719 10.0417 57.2687 10.125 57.6437 10.125C57.8937 10.125 58.1021 10.0677 58.2687 9.95312C58.4354 9.83333 58.5682 9.66927 58.6672 9.46094C58.7661 9.2474 58.8365 9.0026 58.8781 8.72656C58.9198 8.45052 58.9406 8.15365 58.9406 7.83594ZM63.2172 7.85938V7.69531C63.2172 7.07552 63.3057 6.50521 63.4828 5.98438C63.6599 5.45833 63.9203 5.0026 64.2641 4.61719C64.6078 4.23177 65.0323 3.93229 65.5375 3.71875C66.0427 3.5 66.626 3.39062 67.2875 3.39062C67.9542 3.39062 68.5401 3.5 69.0453 3.71875C69.5557 3.93229 69.9828 4.23177 70.3266 4.61719C70.6703 5.0026 70.9307 5.45833 71.1078 5.98438C71.2849 6.50521 71.3734 7.07552 71.3734 7.69531V7.85938C71.3734 8.47396 71.2849 9.04427 71.1078 9.57031C70.9307 10.0911 70.6703 10.5469 70.3266 10.9375C69.9828 11.3229 69.5583 11.6224 69.0531 11.8359C68.5479 12.0495 67.9646 12.1562 67.3031 12.1562C66.6417 12.1562 66.0557 12.0495 65.5453 11.8359C65.0349 11.6224 64.6078 11.3229 64.2641 10.9375C63.9203 10.5469 63.6599 10.0911 63.4828 9.57031C63.3057 9.04427 63.2172 8.47396 63.2172 7.85938ZM65.85 7.69531V7.85938C65.85 8.17708 65.8734 8.47396 65.9203 8.75C65.9672 9.02604 66.0453 9.26823 66.1547 9.47656C66.2641 9.67969 66.4125 9.83854 66.6 9.95312C66.7875 10.0677 67.0219 10.125 67.3031 10.125C67.5792 10.125 67.8083 10.0677 67.9906 9.95312C68.1781 9.83854 68.3266 9.67969 68.4359 9.47656C68.5453 9.26823 68.6234 9.02604 68.6703 8.75C68.7172 8.47396 68.7406 8.17708 68.7406 7.85938V7.69531C68.7406 7.38802 68.7172 7.09896 68.6703 6.82812C68.6234 6.55208 68.5453 6.3099 68.4359 6.10156C68.3266 5.88802 68.1781 5.72135 67.9906 5.60156C67.8031 5.48177 67.5687 5.42188 67.2875 5.42188C67.0115 5.42188 66.7797 5.48177 66.5922 5.60156C66.4099 5.72135 66.2641 5.88802 66.1547 6.10156C66.0453 6.3099 65.9672 6.55208 65.9203 6.82812C65.8734 7.09896 65.85 7.38802 65.85 7.69531ZM76.0016 5.64062V12H73.3688V3.54688H75.8297L76.0016 5.64062ZM78.5016 3.48438L78.4547 5.92969C78.3505 5.91927 78.2099 5.90625 78.0328 5.89062C77.8557 5.875 77.7073 5.86719 77.5875 5.86719C77.2802 5.86719 77.0146 5.90365 76.7906 5.97656C76.5719 6.04427 76.3896 6.14844 76.2438 6.28906C76.1031 6.42448 75.999 6.59635 75.9313 6.80469C75.8688 7.01302 75.8401 7.25521 75.8453 7.53125L75.3688 7.21875C75.3688 6.65104 75.4234 6.13542 75.5328 5.67188C75.6474 5.20312 75.8089 4.79948 76.0172 4.46094C76.2255 4.11719 76.4781 3.85417 76.775 3.67188C77.0719 3.48438 77.4052 3.39062 77.775 3.39062C77.9052 3.39062 78.0328 3.39844 78.1578 3.41406C78.288 3.42969 78.4026 3.45312 78.5016 3.48438ZM85.0516 3.54688V5.375H79.9578V3.54688H85.0516ZM81.0281 1.44531H83.6609V9.24219C83.6609 9.46615 83.687 9.64062 83.7391 9.76562C83.7911 9.88542 83.8797 9.97135 84.0047 10.0234C84.1349 10.0703 84.3068 10.0938 84.5203 10.0938C84.6714 10.0938 84.7964 10.0911 84.8953 10.0859C84.9943 10.0755 85.088 10.0625 85.1766 10.0469V11.9297C84.9526 12.0026 84.7182 12.0573 84.4734 12.0938C84.2286 12.1354 83.9682 12.1562 83.6922 12.1562C83.1297 12.1562 82.6479 12.0677 82.2469 11.8906C81.851 11.7135 81.549 11.4349 81.3406 11.0547C81.1323 10.6745 81.0281 10.1797 81.0281 9.57031V1.44531ZM90.9922 12.1562C90.3047 12.1562 89.6901 12.0495 89.1484 11.8359C88.6068 11.6172 88.1484 11.3177 87.7734 10.9375C87.4036 10.5573 87.1198 10.1198 86.9219 9.625C86.7292 9.13021 86.6328 8.60677 86.6328 8.05469V7.75781C86.6328 7.13802 86.7188 6.5651 86.8906 6.03906C87.0625 5.50781 87.3177 5.04427 87.6562 4.64844C87.9948 4.2526 88.4193 3.94531 88.9297 3.72656C89.4401 3.5026 90.0339 3.39062 90.7109 3.39062C91.3099 3.39062 91.8464 3.48698 92.3203 3.67969C92.7943 3.8724 93.1953 4.14844 93.5234 4.50781C93.8568 4.86719 94.1094 5.30208 94.2812 5.8125C94.4583 6.32292 94.5469 6.89583 94.5469 7.53125V8.60156H87.6406V6.95312H91.9766V6.75C91.9818 6.46875 91.9323 6.22917 91.8281 6.03125C91.7292 5.83333 91.5833 5.68229 91.3906 5.57812C91.1979 5.47396 90.9635 5.42188 90.6875 5.42188C90.401 5.42188 90.1641 5.48438 89.9766 5.60938C89.7943 5.73438 89.651 5.90625 89.5469 6.125C89.4479 6.33854 89.3776 6.58594 89.3359 6.86719C89.2943 7.14844 89.2734 7.44531 89.2734 7.75781V8.05469C89.2734 8.36719 89.3151 8.65104 89.3984 8.90625C89.487 9.16146 89.612 9.38021 89.7734 9.5625C89.9401 9.73958 90.138 9.8776 90.3672 9.97656C90.6016 10.0755 90.8672 10.125 91.1641 10.125C91.5234 10.125 91.8776 10.0573 92.2266 9.92188C92.5755 9.78646 92.875 9.5625 93.125 9.25L94.3203 10.6719C94.1484 10.9167 93.9036 11.1536 93.5859 11.3828C93.2734 11.612 92.8984 11.7995 92.4609 11.9453C92.0234 12.0859 91.5339 12.1562 90.9922 12.1562ZM99.9875 10.125C100.232 10.125 100.441 10.0807 100.613 9.99219C100.79 9.89844 100.922 9.76823 101.011 9.60156C101.105 9.42969 101.149 9.22396 101.144 8.98438H103.62C103.626 9.61979 103.469 10.1771 103.152 10.6562C102.839 11.1302 102.412 11.5 101.87 11.7656C101.334 12.026 100.727 12.1562 100.05 12.1562C99.3885 12.1562 98.8104 12.0495 98.3156 11.8359C97.8208 11.6172 97.4068 11.3151 97.0734 10.9297C96.7453 10.5391 96.4979 10.0833 96.3313 9.5625C96.1698 9.04167 96.0891 8.47656 96.0891 7.86719V7.6875C96.0891 7.07812 96.1698 6.51302 96.3313 5.99219C96.4979 5.46615 96.7453 5.01042 97.0734 4.625C97.4068 4.23438 97.8182 3.93229 98.3078 3.71875C98.8026 3.5 99.3781 3.39062 100.034 3.39062C100.738 3.39062 101.357 3.52344 101.894 3.78906C102.435 4.05469 102.86 4.4401 103.167 4.94531C103.474 5.45052 103.626 6.0625 103.62 6.78125H101.144C101.149 6.52604 101.11 6.29688 101.027 6.09375C100.943 5.89062 100.813 5.72917 100.636 5.60938C100.464 5.48438 100.243 5.42188 99.9719 5.42188C99.701 5.42188 99.4823 5.48177 99.3156 5.60156C99.149 5.72135 99.0214 5.88802 98.9328 6.10156C98.8495 6.3099 98.7922 6.54948 98.7609 6.82031C98.7349 7.09115 98.7219 7.38021 98.7219 7.6875V7.86719C98.7219 8.17969 98.7349 8.47396 98.7609 8.75C98.7922 9.02083 98.8521 9.26042 98.9406 9.46875C99.0292 9.67188 99.1568 9.83333 99.3234 9.95312C99.4901 10.0677 99.7115 10.125 99.9875 10.125Z" fill="white"/>
</svg>
