<svg width="96" height="13" viewBox="0 0 96 13" fill="none" xmlns="http://www.w3.org/2000/svg">
    <path d="M7.91406 7.17969H3.60156V9.89062H8.69531V12H0.859375V0.625H8.71094V2.74219H3.60156V5.14062H7.91406V7.17969ZM13.2688 12H10.6281V0H13.2688V12ZM19.7875 12.1562C18.4906 12.1562 17.4411 11.7708 16.6391 11C15.837 10.224 15.4359 9.21615 15.4359 7.97656V7.75781C15.4359 6.89323 15.5948 6.13021 15.9125 5.46875C16.2354 4.80729 16.7042 4.29688 17.3188 3.9375C17.9333 3.57292 18.6625 3.39062 19.5063 3.39062C20.6938 3.39062 21.6313 3.76042 22.3188 4.5C23.0063 5.23438 23.35 6.26042 23.35 7.57812V8.60156H18.1156C18.2094 9.07552 18.4151 9.44792 18.7328 9.71875C19.0505 9.98958 19.462 10.125 19.9672 10.125C20.8005 10.125 21.4516 9.83333 21.9203 9.25L23.1234 10.6719C22.7953 11.125 22.3292 11.487 21.725 11.7578C21.126 12.0234 20.4802 12.1562 19.7875 12.1562ZM19.4906 5.42188C18.7198 5.42188 18.2615 5.93229 18.1156 6.95312H20.7719V6.75C20.7823 6.32812 20.6755 6.0026 20.4516 5.77344C20.2276 5.53906 19.9073 5.42188 19.4906 5.42188ZM28.7906 10.125C29.1604 10.125 29.4469 10.026 29.65 9.82812C29.8531 9.625 29.9521 9.34375 29.9469 8.98438H32.4156C32.4156 9.91146 32.0823 10.6719 31.4156 11.2656C30.7542 11.8594 29.9 12.1562 28.8531 12.1562C27.624 12.1562 26.6552 11.7708 25.9469 11C25.2385 10.2292 24.8844 9.16146 24.8844 7.79688V7.6875C24.8844 6.83333 25.0406 6.08073 25.3531 5.42969C25.6708 4.77344 26.1266 4.27083 26.7203 3.92188C27.3141 3.56771 28.0172 3.39062 28.8297 3.39062C29.9286 3.39062 30.801 3.69531 31.4469 4.30469C32.0927 4.91406 32.4156 5.73958 32.4156 6.78125H29.9469C29.9469 6.34375 29.8401 6.00781 29.6266 5.77344C29.413 5.53906 29.1266 5.42188 28.7672 5.42188C28.0849 5.42188 27.6865 5.85677 27.5719 6.72656C27.5354 7.0026 27.5172 7.38281 27.5172 7.86719C27.5172 8.71615 27.6187 9.30469 27.8219 9.63281C28.025 9.96094 28.3479 10.125 28.7906 10.125ZM37.3953 1.44531V3.54688H38.7859V5.375H37.3953V9.24219C37.3953 9.5599 37.4526 9.78125 37.5672 9.90625C37.6818 10.0312 37.9083 10.0938 38.2469 10.0938C38.5073 10.0938 38.726 10.0781 38.9031 10.0469V11.9297C38.4292 12.0807 37.9344 12.1562 37.4188 12.1562C36.5125 12.1562 35.8432 11.9427 35.4109 11.5156C34.9786 11.0885 34.7625 10.4401 34.7625 9.57031V5.375H33.6844V3.54688H34.7625V1.44531H37.3953ZM45.7422 5.92969L44.875 5.86719C44.0469 5.86719 43.5156 6.1276 43.2812 6.64844V12H40.6484V3.54688H43.1172L43.2031 4.63281C43.6458 3.80469 44.263 3.39062 45.0547 3.39062C45.3359 3.39062 45.5807 3.42188 45.7891 3.48438L45.7422 5.92969ZM46.8781 7.69531C46.8781 6.85156 47.0422 6.10156 47.3703 5.44531C47.6984 4.78385 48.1698 4.27604 48.7844 3.92188C49.399 3.56771 50.1203 3.39062 50.9484 3.39062C52.2141 3.39062 53.2115 3.78385 53.9406 4.57031C54.6698 5.35156 55.0344 6.41667 55.0344 7.76562V7.85938C55.0344 9.17708 54.6672 10.224 53.9328 11C53.2036 11.7708 52.2141 12.1562 50.9641 12.1562C49.7609 12.1562 48.7948 11.7969 48.0656 11.0781C47.3365 10.3542 46.9432 9.375 46.8859 8.14062L46.8781 7.69531ZM49.5109 7.85938C49.5109 8.64062 49.6333 9.21354 49.8781 9.57812C50.1229 9.94271 50.4849 10.125 50.9641 10.125C51.9016 10.125 52.3807 9.40365 52.4016 7.96094V7.69531C52.4016 6.17969 51.9172 5.42188 50.9484 5.42188C50.0682 5.42188 49.5917 6.07552 49.5187 7.38281L49.5109 7.85938ZM64.6422 8.14062V12H61.9V0.625H66.4391C67.3089 0.625 68.0771 0.786458 68.7438 1.10938C69.4156 1.42708 69.9339 1.88281 70.2984 2.47656C70.6682 3.0651 70.8531 3.73438 70.8531 4.48438C70.8531 5.59375 70.4547 6.48177 69.6578 7.14844C68.8661 7.8099 67.7776 8.14062 66.3922 8.14062H64.6422ZM64.6422 6.02344H66.4391C66.9703 6.02344 67.374 5.89062 67.65 5.625C67.9313 5.35938 68.0719 4.98438 68.0719 4.5C68.0719 3.96875 67.9286 3.54427 67.6422 3.22656C67.3557 2.90885 66.9651 2.7474 66.4703 2.74219H64.6422V6.02344ZM75.7781 12H73.1375V0H75.7781V12ZM83.2422 11.0859C82.6849 11.7995 81.9323 12.1562 80.9844 12.1562C80.0573 12.1562 79.3542 11.888 78.875 11.3516C78.401 10.8099 78.1641 10.0339 78.1641 9.02344V3.54688H80.7969V9.03906C80.7969 9.76302 81.1484 10.125 81.8516 10.125C82.4557 10.125 82.8854 9.90885 83.1406 9.47656V3.54688H85.7891V12H83.3203L83.2422 11.0859ZM92.4641 9.625C92.4641 9.40104 92.3469 9.22135 92.1125 9.08594C91.8781 8.95052 91.4328 8.8099 90.7766 8.66406C90.1203 8.51823 89.5786 8.32812 89.1516 8.09375C88.7245 7.85417 88.399 7.5651 88.175 7.22656C87.951 6.88802 87.8391 6.5 87.8391 6.0625C87.8391 5.28646 88.1594 4.64844 88.8 4.14844C89.4406 3.64323 90.2792 3.39062 91.3156 3.39062C92.4302 3.39062 93.326 3.64323 94.0031 4.14844C94.6802 4.65365 95.0188 5.31771 95.0188 6.14062H92.3781C92.3781 5.46354 92.0214 5.125 91.3078 5.125C91.0318 5.125 90.8 5.20312 90.6125 5.35938C90.425 5.51042 90.3313 5.70052 90.3313 5.92969C90.3313 6.16406 90.4458 6.35417 90.675 6.5C90.9042 6.64583 91.2688 6.76562 91.7688 6.85938C92.274 6.95312 92.7167 7.0651 93.0969 7.19531C94.3677 7.63281 95.0031 8.41667 95.0031 9.54688C95.0031 10.3177 94.6594 10.9453 93.9719 11.4297C93.2896 11.9141 92.4042 12.1562 91.3156 12.1562C90.5917 12.1562 89.9458 12.026 89.3781 11.7656C88.8104 11.5052 88.3677 11.151 88.05 10.7031C87.7323 10.2552 87.5734 9.78385 87.5734 9.28906H90.0344C90.0448 9.67969 90.175 9.96615 90.425 10.1484C90.675 10.3255 90.9953 10.4141 91.3859 10.4141C91.7453 10.4141 92.0135 10.3411 92.1906 10.1953C92.3729 10.0495 92.4641 9.85938 92.4641 9.625Z" fill="white"/>
</svg>